<?xml version="1.0" encoding="iso-8859-1"?>
<!-- Generator: Adobe Illustrator 26.0.1, SVG Export Plug-In . SVG Version: 6.00 Build 0)  -->
<svg version="1.1" id="&#xB808;&#xC774;&#xC5B4;_1" xmlns="http://www.w3.org/2000/svg" xmlns:xlink="http://www.w3.org/1999/xlink"
	 x="0px" y="0px" viewBox="0 0 138.064 88.851" style="enable-background:new 0 0 138.064 88.851;" xml:space="preserve">
<rect x="-169.085" y="-255.83" style="display:none;fill:#B81C22;" width="1584" height="511.66"/>
<path style="fill:#FFFFFF;" d="M1319.054-323.143c-1.522-3.669-6.022-6.327-11.337-6.327c-2.641,0-5.076,0.668-7.051,1.78
	c-0.769-7.93-9.426-14.189-20.026-14.189c-5.658,0-10.763,1.788-14.412,4.659c-3.444-7.799-13.097-13.422-24.486-13.422
	c-14.048,0-25.456,8.546-25.821,19.188c-2.925-2.53-7.203-4.138-11.975-4.138c-8.828,0-15.982,5.455-15.982,12.179
	c0,0.09,0.008,0.18,0.012,0.27H1319.054z"/>
<path style="fill:#FFFFFF;" d="M950.481-323.143c1.044-2.516,4.129-4.337,7.773-4.337c1.81,0,3.479,0.458,4.833,1.219
	c0.526-5.435,6.462-9.726,13.729-9.726c3.879,0,7.379,1.227,9.88,3.192c2.361-5.346,8.978-9.2,16.786-9.2
	c9.631,0,17.451,5.861,17.702,13.155c2.005-1.736,4.938-2.838,8.209-2.838c6.053,0,10.957,3.74,10.957,8.35
	c0,0.063-0.005,0.123-0.008,0.185H950.481z"/>
<path style="fill:#D0EAF2;" d="M239.169-329.983c0.477-1.148,1.886-1.982,3.553-1.982c0.827,0,1.589,0.21,2.208,0.559
	c0.241-2.486,2.954-4.446,6.275-4.446c1.773,0,3.373,0.559,4.516,1.458c1.079-2.442,4.104-4.206,7.673-4.206
	c4.401,0,7.976,2.68,8.091,6.013c0.916-0.793,2.257-1.298,3.752-1.298c2.765,0,5.008,1.709,5.008,3.816
	c0,0.03-0.003,0.057-0.004,0.085H239.169z"/>
<path style="fill:#FFFFFF;" d="M98.226-318.627c-0.846-2.039-3.348-3.517-6.302-3.517c-1.468,0-2.821,0.368-3.918,0.987
	c-0.427-4.405-5.241-7.886-11.133-7.886c-3.143,0-5.981,0.995-8.01,2.59c-1.915-4.334-7.281-7.461-13.612-7.461
	c-7.809,0-14.149,4.751-14.353,10.667c-1.625-1.407-4.003-2.298-6.655-2.298c-4.908,0-8.884,3.029-8.884,6.768
	c0,0.049,0.005,0.098,0.007,0.15H98.226z"/>
<g>
	<path style="fill:#FFFFFF;" d="M79.225,36.19c0,3.991-10.673,3.16-15.408,3.16H13.81c-4.483,0-6.891-0.077-6.891-2.012
		c0-1.33,1.611-1.723,4.101-1.98c1.227-0.151,2.663-0.258,4.225-0.424l2.839-0.392H18.1l3.558-0.499l42.32-5.852
		c1.96-0.212,4.959,0.453,7.765,1.587c2.17,0.892,4.243,2.057,5.647,3.312C78.522,34.087,79.225,35.162,79.225,36.19z"/>
	<polygon style="fill:#FFFFFF;" points="19.073,35.42 16.937,35.843 16.922,35.843 11.321,36.932 11.02,35.359 10.731,33.891 
		10.173,31.035 9.312,26.558 12.024,29.023 13.763,30.595 18.084,34.527 18.084,34.543 18.1,34.543 	"/>
	<g>
		<polygon style="fill:#FFFFFF;" points="60.348,35.638 30.639,15.415 23.66,15.981 41.207,35.827 		"/>
		<polygon style="fill:#E3E2E2;" points="57.656,35.638 29.078,15.509 22.251,16.029 38.515,35.827 		"/>
	</g>
	<polygon style="fill:#E84143;" points="21.658,34.044 16.937,39.351 13.81,39.351 16.922,35.843 16.937,35.843 18.084,34.543 
		18.1,34.543 	"/>
	<polygon style="fill:#E84143;" points="13.763,30.595 10.731,33.891 10.173,31.035 12.024,29.023 	"/>
	<path style="fill:#6D6E70;" d="M77.39,33.09c-5.949-1.255-11.978,1.089-12.043,1.104c-0.206,0.091-0.415,0.12-0.606,0.12
		c-0.621,0-1.228-0.347-1.483-0.937c-0.335-0.77,0.046-1.649,0.862-1.966c0.207-0.074,3.413-1.315,7.622-1.633
		C73.913,30.67,75.986,31.836,77.39,33.09z"/>
</g>
</svg>
