<?xml version="1.0" encoding="iso-8859-1"?>
<!-- Generator: Adobe Illustrator 26.0.1, SVG Export Plug-In . SVG Version: 6.00 Build 0)  -->
<svg version="1.1" id="&#xB808;&#xC774;&#xC5B4;_1" xmlns="http://www.w3.org/2000/svg" xmlns:xlink="http://www.w3.org/1999/xlink"
	 x="0px" y="0px" viewBox="0 0 1365.894 88.851" style="enable-background:new 0 0 1365.894 88.851;" xml:space="preserve">
<rect x="-169.085" y="-255.83" style="display:none;fill:#B81C22;" width="1584" height="511.66"/>
<path style="fill:#FFFFFF;" d="M1319.054-323.143c-1.522-3.669-6.022-6.327-11.337-6.327c-2.641,0-5.076,0.668-7.051,1.78
	c-0.769-7.93-9.426-14.189-20.026-14.189c-5.658,0-10.763,1.788-14.412,4.659c-3.444-7.799-13.097-13.422-24.486-13.422
	c-14.048,0-25.456,8.546-25.821,19.188c-2.925-2.53-7.203-4.138-11.975-4.138c-8.828,0-15.982,5.455-15.982,12.179
	c0,0.09,0.008,0.18,0.012,0.27H1319.054z"/>
<path style="fill:#FFFFFF;" d="M950.481-323.143c1.044-2.516,4.129-4.337,7.773-4.337c1.81,0,3.479,0.458,4.833,1.219
	c0.526-5.435,6.462-9.726,13.729-9.726c3.879,0,7.379,1.227,9.88,3.192c2.361-5.346,8.978-9.2,16.786-9.2
	c9.631,0,17.451,5.861,17.702,13.155c2.005-1.736,4.938-2.838,8.209-2.838c6.053,0,10.957,3.74,10.957,8.35
	c0,0.063-0.005,0.123-0.008,0.185H950.481z"/>
<path style="fill:#D0EAF2;" d="M239.169-329.983c0.477-1.148,1.886-1.982,3.553-1.982c0.827,0,1.589,0.21,2.208,0.559
	c0.241-2.486,2.954-4.446,6.275-4.446c1.773,0,3.373,0.559,4.516,1.458c1.079-2.442,4.104-4.206,7.673-4.206
	c4.401,0,7.976,2.68,8.091,6.013c0.916-0.793,2.257-1.298,3.752-1.298c2.765,0,5.008,1.709,5.008,3.816
	c0,0.03-0.003,0.057-0.004,0.085H239.169z"/>
<path style="fill:#D0EAF2;" d="M1127.218,60.128c0.477-1.15,1.886-1.982,3.553-1.982c0.827,0,1.589,0.207,2.208,0.556
	c0.241-2.483,2.953-4.446,6.275-4.446c1.773,0,3.373,0.562,4.515,1.461c1.079-2.445,4.104-4.206,7.674-4.206
	c4.401,0,7.976,2.677,8.09,6.011c0.916-0.791,2.257-1.295,3.752-1.295c2.766,0,5.007,1.709,5.007,3.816
	c0,0.027-0.003,0.055-0.004,0.085H1127.218z"/>
<path style="fill:#D0EAF2;" d="M903.71,64.306c-0.709-1.706-2.802-2.944-5.276-2.944c-1.229,0-2.362,0.311-3.281,0.829
	c-0.357-3.691-4.387-6.602-9.32-6.602c-2.632,0-5.008,0.831-6.706,2.167c-1.603-3.628-6.095-6.245-11.396-6.245
	c-6.537,0-11.846,3.977-12.016,8.927c-1.36-1.178-3.352-1.924-5.572-1.924c-4.109,0-7.438,2.538-7.438,5.667
	c0,0.044,0.004,0.084,0.005,0.125H903.71z"/>
<path style="fill:#FFFFFF;" d="M98.226-318.627c-0.846-2.039-3.348-3.517-6.302-3.517c-1.468,0-2.821,0.368-3.918,0.987
	c-0.427-4.405-5.241-7.886-11.133-7.886c-3.143,0-5.981,0.995-8.01,2.59c-1.915-4.334-7.281-7.461-13.612-7.461
	c-7.809,0-14.149,4.751-14.353,10.667c-1.625-1.407-4.003-2.298-6.655-2.298c-4.908,0-8.884,3.029-8.884,6.768
	c0,0.049,0.005,0.098,0.007,0.15H98.226z"/>
</svg>
