<?xml version="1.0" encoding="iso-8859-1"?>
<!-- Generator: Adobe Illustrator 26.0.1, SVG Export Plug-In . SVG Version: 6.00 Build 0)  -->
<svg version="1.1" id="&#xB808;&#xC774;&#xC5B4;_1" xmlns="http://www.w3.org/2000/svg" xmlns:xlink="http://www.w3.org/1999/xlink"
	 x="0px" y="0px" viewBox="0 0 595.276 284.578" style="enable-background:new 0 0 595.276 284.578;" xml:space="preserve">
<path style="display:none;fill:#1499AE;" d="M-82.425,409.058h759.806V59.88c-1.187,0.833-2.266,1.666-3.259,2.439
	c-3.69,2.871-5.724,4.455-10.762,4.455s-7.072-1.584-10.763-4.455c-4.584-3.567-10.863-8.452-22.413-8.452
	c-11.549,0-17.828,4.886-22.412,8.452c-3.69,2.871-5.723,4.455-10.758,4.455c-5.036,0-7.068-1.584-10.758-4.455
	c-4.584-3.567-10.863-8.452-22.412-8.452c-11.549,0-17.828,4.886-22.412,8.452c-3.69,2.871-5.723,4.455-10.758,4.455
	c-5.036,0-7.068-1.584-10.758-4.455c-4.584-3.567-10.862-8.452-22.411-8.452c-11.548,0-17.825,4.886-22.408,8.452
	c-3.69,2.871-5.722,4.455-10.757,4.455c-5.034,0-7.066-1.581-10.755-4.455c-4.584-3.567-10.862-8.452-22.41-8.452
	c-11.548,0-17.824,4.886-22.408,8.452c-3.689,2.873-5.72,4.455-10.753,4.455c-5.036,0-7.067-1.584-10.757-4.455
	c-4.583-3.567-10.862-8.452-22.41-8.452c-11.549,0-17.827,4.886-22.41,8.452c-3.69,2.871-5.721,4.455-10.757,4.455
	c-5.036,0-7.067-1.584-10.757-4.455c-4.583-3.567-10.861-8.452-22.408-8.452c-11.548,0-17.825,4.886-22.408,8.452
	c-3.69,2.871-5.722,4.455-10.757,4.455c-5.036,0-7.067-1.584-10.757-4.455c-4.583-3.567-10.861-8.452-22.408-8.452
	c-11.548,0-17.825,4.886-22.408,8.452c-3.69,2.871-5.722,4.455-10.757,4.455c-5.036,0-7.067-1.584-10.757-4.455
	c-4.583-3.567-10.862-8.452-22.41-8.452c-11.548,0-17.825,4.886-22.41,8.452c-3.689,2.873-5.72,4.455-10.755,4.455
	c-5.033,0-7.065-1.581-10.753-4.455c-4.584-3.567-10.862-8.452-22.41-8.452s-17.825,4.886-22.41,8.452
	c-3.689,2.873-5.72,4.455-10.753,4.455c-5.033,0-7.065-1.581-10.753-4.455c-4.584-3.567-10.861-8.452-22.408-8.452
	c-11.548,0-17.824,4.886-22.408,8.452c-3.689,2.873-5.72,4.455-10.753,4.455c-5.036,0-7.067-1.584-10.757-4.455
	c-4.583-3.567-10.86-8.452-22.408-8.452s-17.825,4.886-22.409,8.452c-3.688,2.873-5.72,4.455-10.753,4.455
	c-5.033,0-7.065-1.581-10.752-4.455c-1.551-1.207-3.305-2.564-5.382-3.831V409.058z"/>
<path style="display:none;fill:#3AA7BA;" d="M-82.425,434.598h759.806V85.42c-1.187,0.833-2.266,1.666-3.259,2.439
	c-3.69,2.871-5.724,4.455-10.762,4.455s-7.072-1.584-10.763-4.455c-4.584-3.567-10.863-8.452-22.413-8.452
	c-11.549,0-17.828,4.886-22.412,8.452c-3.69,2.871-5.723,4.455-10.758,4.455c-5.036,0-7.068-1.584-10.758-4.455
	c-4.584-3.567-10.863-8.452-22.412-8.452c-11.549,0-17.828,4.886-22.412,8.452c-3.69,2.871-5.723,4.455-10.758,4.455
	c-5.036,0-7.068-1.584-10.758-4.455c-4.584-3.567-10.862-8.452-22.411-8.452c-11.548,0-17.825,4.886-22.408,8.452
	c-3.69,2.871-5.722,4.455-10.757,4.455c-5.034,0-7.066-1.581-10.755-4.455c-4.584-3.567-10.862-8.452-22.41-8.452
	c-11.548,0-17.824,4.886-22.408,8.452c-3.689,2.873-5.72,4.455-10.753,4.455c-5.036,0-7.067-1.584-10.757-4.455
	c-4.583-3.567-10.862-8.452-22.41-8.452c-11.549,0-17.827,4.886-22.41,8.452c-3.69,2.871-5.721,4.455-10.757,4.455
	c-5.036,0-7.067-1.584-10.757-4.455c-4.583-3.567-10.861-8.452-22.408-8.452c-11.548,0-17.825,4.886-22.408,8.452
	c-3.69,2.871-5.722,4.455-10.757,4.455c-5.036,0-7.067-1.584-10.757-4.455c-4.583-3.567-10.861-8.452-22.408-8.452
	c-11.548,0-17.825,4.886-22.408,8.452c-3.69,2.871-5.722,4.455-10.757,4.455c-5.036,0-7.067-1.584-10.757-4.455
	c-4.583-3.567-10.862-8.452-22.41-8.452c-11.548,0-17.825,4.886-22.41,8.452c-3.689,2.873-5.72,4.455-10.755,4.455
	c-5.033,0-7.065-1.581-10.753-4.455c-4.584-3.567-10.862-8.452-22.41-8.452s-17.825,4.886-22.41,8.452
	c-3.689,2.873-5.72,4.455-10.753,4.455c-5.033,0-7.065-1.581-10.753-4.455c-4.584-3.567-10.861-8.452-22.408-8.452
	c-11.548,0-17.824,4.886-22.408,8.452c-3.689,2.873-5.72,4.455-10.753,4.455c-5.036,0-7.067-1.584-10.757-4.455
	c-4.583-3.567-10.86-8.452-22.408-8.452s-17.825,4.886-22.409,8.452c-3.688,2.873-5.72,4.455-10.753,4.455
	c-5.033,0-7.065-1.581-10.752-4.455c-1.551-1.207-3.305-2.564-5.382-3.831V434.598z"/>
<path style="display:none;fill:#50BBCA;" d="M-82.106,461.521h759.806V112.344c-1.187,0.833-2.266,1.666-3.259,2.439
	c-3.69,2.871-5.724,4.455-10.762,4.455s-7.072-1.584-10.763-4.455c-4.584-3.567-10.863-8.453-22.413-8.453
	c-11.549,0-17.828,4.886-22.412,8.453c-3.69,2.871-5.723,4.455-10.758,4.455c-5.036,0-7.068-1.584-10.758-4.455
	c-4.584-3.567-10.863-8.453-22.412-8.453c-11.549,0-17.828,4.886-22.412,8.453c-3.69,2.871-5.723,4.455-10.758,4.455
	c-5.036,0-7.068-1.584-10.758-4.455c-4.584-3.567-10.862-8.453-22.411-8.453c-11.548,0-17.825,4.886-22.408,8.453
	c-3.69,2.871-5.722,4.455-10.757,4.455c-5.034,0-7.066-1.581-10.755-4.455c-4.584-3.567-10.862-8.453-22.41-8.453
	c-11.548,0-17.824,4.886-22.408,8.453c-3.689,2.873-5.72,4.455-10.753,4.455c-5.036,0-7.067-1.584-10.757-4.455
	c-4.583-3.567-10.862-8.453-22.41-8.453c-11.549,0-17.827,4.886-22.41,8.453c-3.69,2.871-5.721,4.455-10.757,4.455
	c-5.036,0-7.067-1.584-10.757-4.455c-4.583-3.567-10.861-8.453-22.408-8.453c-11.548,0-17.825,4.886-22.408,8.453
	c-3.69,2.871-5.722,4.455-10.757,4.455c-5.036,0-7.067-1.584-10.757-4.455c-4.583-3.567-10.861-8.453-22.408-8.453
	c-11.548,0-17.825,4.886-22.408,8.453c-3.69,2.871-5.722,4.455-10.757,4.455c-5.036,0-7.067-1.584-10.757-4.455
	c-4.583-3.567-10.862-8.453-22.41-8.453c-11.548,0-17.825,4.886-22.41,8.453c-3.689,2.873-5.72,4.455-10.755,4.455
	c-5.033,0-7.065-1.581-10.753-4.455c-4.584-3.567-10.862-8.453-22.41-8.453s-17.825,4.886-22.41,8.453
	c-3.689,2.873-5.72,4.455-10.753,4.455c-5.033,0-7.065-1.581-10.753-4.455c-4.584-3.567-10.861-8.453-22.408-8.453
	c-11.548,0-17.824,4.886-22.408,8.453c-3.689,2.873-5.72,4.455-10.753,4.455c-5.036,0-7.067-1.584-10.757-4.455
	c-4.583-3.567-10.86-8.453-22.408-8.453s-17.825,4.886-22.41,8.453c-3.688,2.873-5.72,4.455-10.753,4.455
	c-5.033,0-7.065-1.581-10.752-4.455c-1.551-1.207-3.305-2.564-5.382-3.831V461.521z"/>
<path style="fill:#79C7D0;" d="M-82.106,461.521h759.806V140.437c-1.187,0.833-2.266,1.666-3.259,2.439
	c-3.69,2.871-5.724,4.454-10.762,4.454s-7.072-1.584-10.763-4.454c-4.584-3.567-10.863-8.453-22.413-8.453
	c-11.549,0-17.828,4.886-22.412,8.453c-3.69,2.871-5.723,4.454-10.758,4.454c-5.036,0-7.068-1.584-10.758-4.454
	c-4.584-3.567-10.863-8.453-22.412-8.453c-11.549,0-17.828,4.886-22.412,8.453c-3.69,2.871-5.723,4.454-10.758,4.454
	c-5.036,0-7.068-1.584-10.758-4.454c-4.584-3.567-10.862-8.453-22.411-8.453c-11.548,0-17.825,4.886-22.408,8.453
	c-3.69,2.871-5.722,4.454-10.757,4.454c-5.034,0-7.066-1.581-10.755-4.454c-4.584-3.567-10.862-8.453-22.41-8.453
	c-11.548,0-17.824,4.886-22.408,8.453c-3.689,2.873-5.72,4.454-10.753,4.454c-5.036,0-7.067-1.584-10.757-4.454
	c-4.583-3.567-10.862-8.453-22.41-8.453c-11.549,0-17.827,4.886-22.41,8.453c-3.69,2.871-5.721,4.454-10.757,4.454
	c-5.036,0-7.067-1.584-10.757-4.454c-4.583-3.567-10.861-8.453-22.408-8.453c-11.548,0-17.825,4.886-22.408,8.453
	c-3.69,2.871-5.722,4.454-10.757,4.454c-5.036,0-7.067-1.584-10.757-4.454c-4.583-3.567-10.861-8.453-22.408-8.453
	c-11.548,0-17.825,4.886-22.408,8.453c-3.69,2.871-5.722,4.454-10.757,4.454c-5.036,0-7.067-1.584-10.757-4.454
	c-4.583-3.567-10.862-8.453-22.41-8.453c-11.548,0-17.825,4.886-22.41,8.453c-3.689,2.873-5.72,4.454-10.755,4.454
	c-5.033,0-7.065-1.581-10.753-4.454c-4.584-3.567-10.862-8.453-22.41-8.453s-17.825,4.886-22.41,8.453
	c-3.689,2.873-5.72,4.454-10.753,4.454c-5.033,0-7.065-1.581-10.753-4.454c-4.584-3.567-10.861-8.453-22.408-8.453
	c-11.548,0-17.824,4.886-22.408,8.453c-3.689,2.873-5.72,4.454-10.753,4.454c-5.036,0-7.067-1.584-10.757-4.454
	c-4.583-3.567-10.86-8.453-22.408-8.453s-17.825,4.886-22.41,8.453c-3.688,2.873-5.72,4.454-10.753,4.454
	c-5.033,0-7.065-1.581-10.752-4.454c-1.551-1.207-3.305-2.564-5.382-3.831V461.521z"/>
</svg>
