<?xml version="1.0" encoding="iso-8859-1"?>
<!-- Generator: Adobe Illustrator 26.0.1, SVG Export Plug-In . SVG Version: 6.00 Build 0)  -->
<svg version="1.1" id="&#xB808;&#xC774;&#xC5B4;_1" xmlns="http://www.w3.org/2000/svg" xmlns:xlink="http://www.w3.org/1999/xlink"
	 x="0px" y="0px" viewBox="0 0 595.276 284.578" style="enable-background:new 0 0 595.276 284.578;" xml:space="preserve">
<path style="display:none;fill:#1499AE;" d="M-82.425,409.058h759.806V59.88c-1.187,0.833-2.266,1.666-3.259,2.439
	c-3.69,2.871-5.724,4.455-10.762,4.455s-7.072-1.584-10.763-4.455c-4.584-3.567-10.863-8.452-22.413-8.452
	c-11.549,0-17.828,4.886-22.412,8.452c-3.69,2.871-5.723,4.455-10.758,4.455c-5.036,0-7.068-1.584-10.758-4.455
	c-4.584-3.567-10.863-8.452-22.412-8.452c-11.549,0-17.828,4.886-22.412,8.452c-3.69,2.871-5.723,4.455-10.758,4.455
	c-5.036,0-7.068-1.584-10.758-4.455c-4.584-3.567-10.862-8.452-22.411-8.452c-11.548,0-17.825,4.886-22.408,8.452
	c-3.69,2.871-5.722,4.455-10.757,4.455c-5.034,0-7.066-1.581-10.755-4.455c-4.584-3.567-10.862-8.452-22.41-8.452
	c-11.548,0-17.824,4.886-22.408,8.452c-3.689,2.873-5.72,4.455-10.753,4.455c-5.036,0-7.067-1.584-10.757-4.455
	c-4.583-3.567-10.862-8.452-22.41-8.452c-11.549,0-17.827,4.886-22.41,8.452c-3.69,2.871-5.721,4.455-10.757,4.455
	c-5.036,0-7.067-1.584-10.757-4.455c-4.583-3.567-10.861-8.452-22.408-8.452c-11.548,0-17.825,4.886-22.408,8.452
	c-3.69,2.871-5.722,4.455-10.757,4.455c-5.036,0-7.067-1.584-10.757-4.455c-4.583-3.567-10.861-8.452-22.408-8.452
	c-11.548,0-17.825,4.886-22.408,8.452c-3.69,2.871-5.722,4.455-10.757,4.455c-5.036,0-7.067-1.584-10.757-4.455
	c-4.583-3.567-10.862-8.452-22.41-8.452c-11.548,0-17.825,4.886-22.41,8.452c-3.689,2.873-5.72,4.455-10.755,4.455
	c-5.033,0-7.065-1.581-10.753-4.455c-4.584-3.567-10.862-8.452-22.41-8.452s-17.825,4.886-22.41,8.452
	c-3.689,2.873-5.72,4.455-10.753,4.455c-5.033,0-7.065-1.581-10.753-4.455c-4.584-3.567-10.861-8.452-22.408-8.452
	c-11.548,0-17.824,4.886-22.408,8.452c-3.689,2.873-5.72,4.455-10.753,4.455c-5.036,0-7.067-1.584-10.757-4.455
	c-4.583-3.567-10.86-8.452-22.408-8.452s-17.825,4.886-22.409,8.452c-3.688,2.873-5.72,4.455-10.753,4.455
	c-5.033,0-7.065-1.581-10.752-4.455c-1.551-1.207-3.305-2.564-5.382-3.831V409.058z"/>
<path style="display:none;fill:#3AA7BA;" d="M-82.425,434.598h759.806V85.42c-1.187,0.833-2.266,1.666-3.259,2.439
	c-3.69,2.871-5.724,4.455-10.762,4.455s-7.072-1.584-10.763-4.455c-4.584-3.567-10.863-8.452-22.413-8.452
	c-11.549,0-17.828,4.886-22.412,8.452c-3.69,2.871-5.723,4.455-10.758,4.455c-5.036,0-7.068-1.584-10.758-4.455
	c-4.584-3.567-10.863-8.452-22.412-8.452c-11.549,0-17.828,4.886-22.412,8.452c-3.69,2.871-5.723,4.455-10.758,4.455
	c-5.036,0-7.068-1.584-10.758-4.455c-4.584-3.567-10.862-8.452-22.411-8.452c-11.548,0-17.825,4.886-22.408,8.452
	c-3.69,2.871-5.722,4.455-10.757,4.455c-5.034,0-7.066-1.581-10.755-4.455c-4.584-3.567-10.862-8.452-22.41-8.452
	c-11.548,0-17.824,4.886-22.408,8.452c-3.689,2.873-5.72,4.455-10.753,4.455c-5.036,0-7.067-1.584-10.757-4.455
	c-4.583-3.567-10.862-8.452-22.41-8.452c-11.549,0-17.827,4.886-22.41,8.452c-3.69,2.871-5.721,4.455-10.757,4.455
	c-5.036,0-7.067-1.584-10.757-4.455c-4.583-3.567-10.861-8.452-22.408-8.452c-11.548,0-17.825,4.886-22.408,8.452
	c-3.69,2.871-5.722,4.455-10.757,4.455c-5.036,0-7.067-1.584-10.757-4.455c-4.583-3.567-10.861-8.452-22.408-8.452
	c-11.548,0-17.825,4.886-22.408,8.452c-3.69,2.871-5.722,4.455-10.757,4.455c-5.036,0-7.067-1.584-10.757-4.455
	c-4.583-3.567-10.862-8.452-22.41-8.452c-11.548,0-17.825,4.886-22.41,8.452c-3.689,2.873-5.72,4.455-10.755,4.455
	c-5.033,0-7.065-1.581-10.753-4.455c-4.584-3.567-10.862-8.452-22.41-8.452s-17.825,4.886-22.41,8.452
	c-3.689,2.873-5.72,4.455-10.753,4.455c-5.033,0-7.065-1.581-10.753-4.455c-4.584-3.567-10.861-8.452-22.408-8.452
	c-11.548,0-17.824,4.886-22.408,8.452c-3.689,2.873-5.72,4.455-10.753,4.455c-5.036,0-7.067-1.584-10.757-4.455
	c-4.583-3.567-10.86-8.452-22.408-8.452s-17.825,4.886-22.409,8.452c-3.688,2.873-5.72,4.455-10.753,4.455
	c-5.033,0-7.065-1.581-10.752-4.455c-1.551-1.207-3.305-2.564-5.382-3.831V434.598z"/>
<path style="display:none;fill:#50BBCA;" d="M-82.106,461.521h759.806V112.344c-1.187,0.833-2.266,1.666-3.259,2.439
	c-3.69,2.871-5.724,4.455-10.762,4.455s-7.072-1.584-10.763-4.455c-4.584-3.567-10.863-8.453-22.413-8.453
	c-11.549,0-17.828,4.886-22.412,8.453c-3.69,2.871-5.723,4.455-10.758,4.455c-5.036,0-7.068-1.584-10.758-4.455
	c-4.584-3.567-10.863-8.453-22.412-8.453c-11.549,0-17.828,4.886-22.412,8.453c-3.69,2.871-5.723,4.455-10.758,4.455
	c-5.036,0-7.068-1.584-10.758-4.455c-4.584-3.567-10.862-8.453-22.411-8.453c-11.548,0-17.825,4.886-22.408,8.453
	c-3.69,2.871-5.722,4.455-10.757,4.455c-5.034,0-7.066-1.581-10.755-4.455c-4.584-3.567-10.862-8.453-22.41-8.453
	c-11.548,0-17.824,4.886-22.408,8.453c-3.689,2.873-5.72,4.455-10.753,4.455c-5.036,0-7.067-1.584-10.757-4.455
	c-4.583-3.567-10.862-8.453-22.41-8.453c-11.549,0-17.827,4.886-22.41,8.453c-3.69,2.871-5.721,4.455-10.757,4.455
	c-5.036,0-7.067-1.584-10.757-4.455c-4.583-3.567-10.861-8.453-22.408-8.453c-11.548,0-17.825,4.886-22.408,8.453
	c-3.69,2.871-5.722,4.455-10.757,4.455c-5.036,0-7.067-1.584-10.757-4.455c-4.583-3.567-10.861-8.453-22.408-8.453
	c-11.548,0-17.825,4.886-22.408,8.453c-3.69,2.871-5.722,4.455-10.757,4.455c-5.036,0-7.067-1.584-10.757-4.455
	c-4.583-3.567-10.862-8.453-22.41-8.453c-11.548,0-17.825,4.886-22.41,8.453c-3.689,2.873-5.72,4.455-10.755,4.455
	c-5.033,0-7.065-1.581-10.753-4.455c-4.584-3.567-10.862-8.453-22.41-8.453s-17.825,4.886-22.41,8.453
	c-3.689,2.873-5.72,4.455-10.753,4.455c-5.033,0-7.065-1.581-10.753-4.455c-4.584-3.567-10.861-8.453-22.408-8.453
	c-11.548,0-17.824,4.886-22.408,8.453c-3.689,2.873-5.72,4.455-10.753,4.455c-5.036,0-7.067-1.584-10.757-4.455
	c-4.583-3.567-10.86-8.453-22.408-8.453s-17.825,4.886-22.41,8.453c-3.688,2.873-5.72,4.455-10.753,4.455
	c-5.033,0-7.065-1.581-10.752-4.455c-1.551-1.207-3.305-2.564-5.382-3.831V461.521z"/>
<path style="display:none;fill:#79C7D0;" d="M-82.106,461.521h759.806V140.437c-1.187,0.833-2.266,1.666-3.259,2.439
	c-3.69,2.871-5.724,4.454-10.762,4.454s-7.072-1.584-10.763-4.454c-4.584-3.567-10.863-8.453-22.413-8.453
	c-11.549,0-17.828,4.886-22.412,8.453c-3.69,2.871-5.723,4.454-10.758,4.454c-5.036,0-7.068-1.584-10.758-4.454
	c-4.584-3.567-10.863-8.453-22.412-8.453c-11.549,0-17.828,4.886-22.412,8.453c-3.69,2.871-5.723,4.454-10.758,4.454
	c-5.036,0-7.068-1.584-10.758-4.454c-4.584-3.567-10.862-8.453-22.411-8.453c-11.548,0-17.825,4.886-22.408,8.453
	c-3.69,2.871-5.722,4.454-10.757,4.454c-5.034,0-7.066-1.581-10.755-4.454c-4.584-3.567-10.862-8.453-22.41-8.453
	c-11.548,0-17.824,4.886-22.408,8.453c-3.689,2.873-5.72,4.454-10.753,4.454c-5.036,0-7.067-1.584-10.757-4.454
	c-4.583-3.567-10.862-8.453-22.41-8.453c-11.549,0-17.827,4.886-22.41,8.453c-3.69,2.871-5.721,4.454-10.757,4.454
	c-5.036,0-7.067-1.584-10.757-4.454c-4.583-3.567-10.861-8.453-22.408-8.453c-11.548,0-17.825,4.886-22.408,8.453
	c-3.69,2.871-5.722,4.454-10.757,4.454c-5.036,0-7.067-1.584-10.757-4.454c-4.583-3.567-10.861-8.453-22.408-8.453
	c-11.548,0-17.825,4.886-22.408,8.453c-3.69,2.871-5.722,4.454-10.757,4.454c-5.036,0-7.067-1.584-10.757-4.454
	c-4.583-3.567-10.862-8.453-22.41-8.453c-11.548,0-17.825,4.886-22.41,8.453c-3.689,2.873-5.72,4.454-10.755,4.454
	c-5.033,0-7.065-1.581-10.753-4.454c-4.584-3.567-10.862-8.453-22.41-8.453s-17.825,4.886-22.41,8.453
	c-3.689,2.873-5.72,4.454-10.753,4.454c-5.033,0-7.065-1.581-10.753-4.454c-4.584-3.567-10.861-8.453-22.408-8.453
	c-11.548,0-17.824,4.886-22.408,8.453c-3.689,2.873-5.72,4.454-10.753,4.454c-5.036,0-7.067-1.584-10.757-4.454
	c-4.583-3.567-10.86-8.453-22.408-8.453s-17.825,4.886-22.41,8.453c-3.688,2.873-5.72,4.454-10.753,4.454
	c-5.033,0-7.065-1.581-10.752-4.454c-1.551-1.207-3.305-2.564-5.382-3.831V461.521z"/>
<g>
	<g>
		<polygon style="fill:#CBE8EF;" points="366.136,94.568 332.042,135.295 366.136,135.295 		"/>
		<polygon style="fill:#D7473D;" points="365.466,76.119 356.086,80.247 365.466,84.182 		"/>
		<path style="fill:#E5F4F7;" d="M366.163,157.296c-0.557,0-1.008-0.451-1.008-1.007V76.567c0-0.556,0.451-1.007,1.008-1.007
			c0.557,0,1.008,0.451,1.008,1.007v79.722C367.171,156.845,366.72,157.296,366.163,157.296z"/>
		<path style="fill:#E5F4F7;" d="M366.052,139.663h-38.881c-0.557,0-1.008-0.451-1.008-1.007c0-0.556,0.451-1.007,1.008-1.007
			h38.881c0.557,0,1.008,0.451,1.008,1.007C367.06,139.212,366.609,139.663,366.052,139.663z"/>
		<polygon style="fill:#FFFFFF;" points="344.779,163.864 389.326,163.864 385.392,146.829 344.779,149.314 		"/>
		<polygon style="fill:#EBD74C;" points="410.224,152.508 399.624,170.344 328.095,170.344 328.095,158.363 		"/>
	</g>
	<g>
		<path style="fill:#254056;" d="M369.631,162.591c0,0.791-0.643,1.434-1.436,1.434c-0.793,0-1.436-0.643-1.436-1.434
			c0-0.795,0.643-1.438,1.436-1.438C368.988,161.154,369.631,161.796,369.631,162.591z"/>
		<path style="fill:#254056;" d="M376.837,162.591c0,0.791-0.643,1.434-1.436,1.434c-0.793,0-1.436-0.643-1.436-1.434
			c0-0.795,0.643-1.438,1.436-1.438C376.194,161.154,376.837,161.796,376.837,162.591z"/>
		<path style="fill:#254056;" d="M384.043,162.591c0,0.791-0.643,1.434-1.436,1.434s-1.436-0.643-1.436-1.434
			c0-0.795,0.643-1.438,1.436-1.438S384.043,161.796,384.043,162.591z"/>
		<path style="fill:#254056;" d="M391.249,162.591c0,0.791-0.643,1.434-1.436,1.434c-0.793,0-1.436-0.643-1.436-1.434
			c0-0.795,0.643-1.438,1.436-1.438C390.605,161.154,391.249,161.796,391.249,162.591z"/>
		<path style="fill:#254056;" d="M398.454,162.591c0,0.791-0.643,1.434-1.436,1.434c-0.793,0-1.436-0.643-1.436-1.434
			c0-0.795,0.643-1.438,1.436-1.438C397.812,161.154,398.454,161.796,398.454,162.591z"/>
	</g>
</g>
</svg>
