<?xml version="1.0" encoding="iso-8859-1"?>
<!-- Generator: Adobe Illustrator 26.0.1, SVG Export Plug-In . SVG Version: 6.00 Build 0)  -->
<svg version="1.1" id="&#xB808;&#xC774;&#xC5B4;_1" xmlns="http://www.w3.org/2000/svg" xmlns:xlink="http://www.w3.org/1999/xlink"
	 x="0px" y="0px" viewBox="0 0 5270.127 284.578" style="enable-background:new 0 0 5270.127 284.578;" xml:space="preserve">
<path style="display:none;fill:#1499AE;" d="M42.575,409.058h759.806V59.88c-1.187,0.833-2.266,1.666-3.259,2.439
	c-3.69,2.871-5.724,4.455-10.762,4.455s-7.072-1.584-10.763-4.455c-4.584-3.567-10.863-8.452-22.413-8.452
	c-11.549,0-17.828,4.886-22.412,8.452c-3.69,2.871-5.723,4.455-10.758,4.455c-5.036,0-7.068-1.584-10.758-4.455
	c-4.584-3.567-10.863-8.452-22.412-8.452c-11.549,0-17.828,4.886-22.412,8.452c-3.69,2.871-5.723,4.455-10.758,4.455
	c-5.036,0-7.068-1.584-10.758-4.455c-4.584-3.567-10.862-8.452-22.411-8.452c-11.548,0-17.825,4.886-22.408,8.452
	c-3.69,2.871-5.721,4.455-10.757,4.455c-5.034,0-7.066-1.581-10.755-4.455c-4.584-3.567-10.862-8.452-22.409-8.452
	c-11.548,0-17.824,4.886-22.408,8.452c-3.689,2.873-5.72,4.455-10.753,4.455c-5.036,0-7.067-1.584-10.757-4.455
	c-4.583-3.567-10.862-8.452-22.409-8.452c-11.549,0-17.827,4.886-22.41,8.452c-3.69,2.871-5.721,4.455-10.757,4.455
	c-5.036,0-7.067-1.584-10.757-4.455c-4.583-3.567-10.861-8.452-22.408-8.452c-11.548,0-17.825,4.886-22.408,8.452
	c-3.69,2.871-5.722,4.455-10.757,4.455c-5.036,0-7.067-1.584-10.757-4.455c-4.583-3.567-10.861-8.452-22.408-8.452
	c-11.548,0-17.825,4.886-22.408,8.452c-3.69,2.871-5.722,4.455-10.757,4.455c-5.036,0-7.067-1.584-10.757-4.455
	c-4.583-3.567-10.862-8.452-22.41-8.452c-11.548,0-17.825,4.886-22.41,8.452c-3.689,2.873-5.72,4.455-10.755,4.455
	c-5.033,0-7.065-1.581-10.753-4.455c-4.584-3.567-10.862-8.452-22.41-8.452c-11.548,0-17.825,4.886-22.41,8.452
	c-3.689,2.873-5.72,4.455-10.753,4.455c-5.033,0-7.065-1.581-10.753-4.455c-4.584-3.567-10.861-8.452-22.408-8.452
	c-11.548,0-17.824,4.886-22.408,8.452c-3.689,2.873-5.72,4.455-10.753,4.455c-5.036,0-7.067-1.584-10.757-4.455
	c-4.583-3.567-10.86-8.452-22.408-8.452s-17.825,4.886-22.41,8.452c-3.688,2.873-5.72,4.455-10.753,4.455s-7.065-1.581-10.752-4.455
	c-1.551-1.207-3.305-2.564-5.382-3.831V409.058z"/>
<path style="display:none;fill:#3AA7BA;" d="M42.575,434.598h759.806V85.42c-1.187,0.833-2.266,1.666-3.259,2.439
	c-3.69,2.871-5.724,4.455-10.762,4.455s-7.072-1.584-10.763-4.455c-4.584-3.567-10.863-8.452-22.413-8.452
	c-11.549,0-17.828,4.886-22.412,8.452c-3.69,2.871-5.723,4.455-10.758,4.455c-5.036,0-7.068-1.584-10.758-4.455
	c-4.584-3.567-10.863-8.452-22.412-8.452c-11.549,0-17.828,4.886-22.412,8.452c-3.69,2.871-5.723,4.455-10.758,4.455
	c-5.036,0-7.068-1.584-10.758-4.455c-4.584-3.567-10.862-8.452-22.411-8.452c-11.548,0-17.825,4.886-22.408,8.452
	c-3.69,2.871-5.721,4.455-10.757,4.455c-5.034,0-7.066-1.581-10.755-4.455c-4.584-3.567-10.862-8.452-22.409-8.452
	c-11.548,0-17.824,4.886-22.408,8.452c-3.689,2.873-5.72,4.455-10.753,4.455c-5.036,0-7.067-1.584-10.757-4.455
	c-4.583-3.567-10.862-8.452-22.409-8.452c-11.549,0-17.827,4.886-22.41,8.452c-3.69,2.871-5.721,4.455-10.757,4.455
	c-5.036,0-7.067-1.584-10.757-4.455c-4.583-3.567-10.861-8.452-22.408-8.452c-11.548,0-17.825,4.886-22.408,8.452
	c-3.69,2.871-5.722,4.455-10.757,4.455c-5.036,0-7.067-1.584-10.757-4.455c-4.583-3.567-10.861-8.452-22.408-8.452
	c-11.548,0-17.825,4.886-22.408,8.452c-3.69,2.871-5.722,4.455-10.757,4.455c-5.036,0-7.067-1.584-10.757-4.455
	c-4.583-3.567-10.862-8.452-22.41-8.452c-11.548,0-17.825,4.886-22.41,8.452c-3.689,2.873-5.72,4.455-10.755,4.455
	c-5.033,0-7.065-1.581-10.753-4.455c-4.584-3.567-10.862-8.452-22.41-8.452c-11.548,0-17.825,4.886-22.41,8.452
	c-3.689,2.873-5.72,4.455-10.753,4.455c-5.033,0-7.065-1.581-10.753-4.455c-4.584-3.567-10.861-8.452-22.408-8.452
	c-11.548,0-17.824,4.886-22.408,8.452c-3.689,2.873-5.72,4.455-10.753,4.455c-5.036,0-7.067-1.584-10.757-4.455
	c-4.583-3.567-10.86-8.452-22.408-8.452s-17.825,4.886-22.41,8.452c-3.688,2.873-5.72,4.455-10.753,4.455s-7.065-1.581-10.752-4.455
	c-1.551-1.207-3.305-2.564-5.382-3.831V434.598z"/>
<path style="display:none;fill:#50BBCA;" d="M42.894,461.521h759.806V112.344c-1.187,0.833-2.266,1.666-3.259,2.439
	c-3.69,2.871-5.724,4.455-10.762,4.455s-7.072-1.584-10.763-4.455c-4.584-3.567-10.863-8.453-22.413-8.453
	c-11.549,0-17.828,4.886-22.412,8.453c-3.69,2.871-5.723,4.455-10.758,4.455c-5.036,0-7.068-1.584-10.758-4.455
	c-4.584-3.567-10.863-8.453-22.412-8.453c-11.549,0-17.828,4.886-22.412,8.453c-3.69,2.871-5.723,4.455-10.758,4.455
	c-5.036,0-7.068-1.584-10.758-4.455c-4.584-3.567-10.862-8.453-22.411-8.453c-11.548,0-17.825,4.886-22.408,8.453
	c-3.69,2.871-5.721,4.455-10.757,4.455c-5.034,0-7.066-1.581-10.755-4.455c-4.584-3.567-10.862-8.453-22.41-8.453
	c-11.548,0-17.824,4.886-22.408,8.453c-3.689,2.873-5.72,4.455-10.753,4.455c-5.036,0-7.067-1.584-10.757-4.455
	c-4.583-3.567-10.862-8.453-22.41-8.453c-11.549,0-17.827,4.886-22.41,8.453c-3.69,2.871-5.721,4.455-10.757,4.455
	c-5.036,0-7.067-1.584-10.757-4.455c-4.583-3.567-10.861-8.453-22.408-8.453c-11.548,0-17.825,4.886-22.408,8.453
	c-3.69,2.871-5.722,4.455-10.757,4.455c-5.036,0-7.067-1.584-10.757-4.455c-4.583-3.567-10.861-8.453-22.408-8.453
	c-11.548,0-17.825,4.886-22.408,8.453c-3.69,2.871-5.722,4.455-10.757,4.455c-5.036,0-7.067-1.584-10.757-4.455
	c-4.583-3.567-10.862-8.453-22.41-8.453c-11.548,0-17.825,4.886-22.41,8.453c-3.689,2.873-5.72,4.455-10.755,4.455
	c-5.033,0-7.065-1.581-10.753-4.455c-4.584-3.567-10.862-8.453-22.41-8.453s-17.825,4.886-22.41,8.453
	c-3.689,2.873-5.72,4.455-10.753,4.455c-5.033,0-7.065-1.581-10.753-4.455c-4.584-3.567-10.861-8.453-22.408-8.453
	c-11.548,0-17.824,4.886-22.408,8.453c-3.689,2.873-5.72,4.455-10.753,4.455c-5.036,0-7.067-1.584-10.757-4.455
	c-4.583-3.567-10.86-8.453-22.408-8.453s-17.825,4.886-22.41,8.453c-3.688,2.873-5.72,4.455-10.753,4.455s-7.065-1.581-10.752-4.455
	c-1.551-1.207-3.305-2.564-5.382-3.831V461.521z"/>
<path style="display:none;fill:#79C7D0;" d="M42.894,461.521h759.806V140.437c-1.187,0.833-2.266,1.666-3.259,2.439
	c-3.69,2.871-5.724,4.454-10.762,4.454s-7.072-1.584-10.763-4.454c-4.584-3.567-10.863-8.453-22.413-8.453
	c-11.549,0-17.828,4.886-22.412,8.453c-3.69,2.871-5.723,4.454-10.758,4.454c-5.036,0-7.068-1.584-10.758-4.454
	c-4.584-3.567-10.863-8.453-22.412-8.453c-11.549,0-17.828,4.886-22.412,8.453c-3.69,2.871-5.723,4.454-10.758,4.454
	c-5.036,0-7.068-1.584-10.758-4.454c-4.584-3.567-10.862-8.453-22.411-8.453c-11.548,0-17.825,4.886-22.408,8.453
	c-3.69,2.871-5.721,4.454-10.757,4.454c-5.034,0-7.066-1.581-10.755-4.454c-4.584-3.567-10.862-8.453-22.41-8.453
	c-11.548,0-17.824,4.886-22.408,8.453c-3.689,2.873-5.72,4.454-10.753,4.454c-5.036,0-7.067-1.584-10.757-4.454
	c-4.583-3.567-10.862-8.453-22.41-8.453c-11.549,0-17.827,4.886-22.41,8.453c-3.69,2.871-5.721,4.454-10.757,4.454
	c-5.036,0-7.067-1.584-10.757-4.454c-4.583-3.567-10.861-8.453-22.408-8.453c-11.548,0-17.825,4.886-22.408,8.453
	c-3.69,2.871-5.722,4.454-10.757,4.454c-5.036,0-7.067-1.584-10.757-4.454c-4.583-3.567-10.861-8.453-22.408-8.453
	c-11.548,0-17.825,4.886-22.408,8.453c-3.69,2.871-5.722,4.454-10.757,4.454c-5.036,0-7.067-1.584-10.757-4.454
	c-4.583-3.567-10.862-8.453-22.41-8.453c-11.548,0-17.825,4.886-22.41,8.453c-3.689,2.873-5.72,4.454-10.755,4.454
	c-5.033,0-7.065-1.581-10.753-4.454c-4.584-3.567-10.862-8.453-22.41-8.453s-17.825,4.886-22.41,8.453
	c-3.689,2.873-5.72,4.454-10.753,4.454c-5.033,0-7.065-1.581-10.753-4.454c-4.584-3.567-10.861-8.453-22.408-8.453
	c-11.548,0-17.824,4.886-22.408,8.453c-3.689,2.873-5.72,4.454-10.753,4.454c-5.036,0-7.067-1.584-10.757-4.454
	c-4.583-3.567-10.86-8.453-22.408-8.453s-17.825,4.886-22.41,8.453c-3.688,2.873-5.72,4.454-10.753,4.454s-7.065-1.581-10.752-4.454
	c-1.551-1.207-3.305-2.564-5.382-3.831V461.521z"/>
<path style="fill:#C38780;" d="M502.224,186.785c-41.069-43.639-143.428-85.448-263.216-85.448
	c-119.792,0-222.15,41.809-263.22,85.448H502.224z"/>
<rect x="-168.612" y="183.603" style="fill:#C38780;" width="5922.962" height="17.86"/>
<path style="fill:#DFA292;" d="M1112.009,213.155H419.368c0.45-0.481,0.865-0.924,1.311-1.405
	c4.989-5.277,10.648-10.522,16.914-15.699c4.827-4.028,10.039-7.993,15.571-11.896c3.326-2.33,6.779-4.665,10.329-6.938
	c6.042-3.928,12.468-7.769,19.184-11.54c0.765-0.419,1.564-0.862,2.332-1.28c11.381-6.233,23.628-12.215,36.707-17.873
	c9.558-4.121,19.565-8.056,29.956-11.765c9.786-3.516,19.921-6.844,30.375-9.942c10.872-3.197,22.063-6.176,33.572-8.893
	c16.021-3.772,32.614-7,49.721-9.592c13.139-2.011,26.569-3.641,40.254-4.89c19.568-1.761,39.614-2.716,60.079-2.716
	C923.303,98.725,1057.976,154.71,1112.009,213.155z"/>
<path style="fill:#D09184;" d="M986.292,213.155H690.44l-50.677-11.572l-72.774-16.63l-66.792-15.25l-17.52-4.028
	c0.765-0.419,1.564-0.862,2.332-1.28c11.381-6.233,23.628-12.215,36.707-17.873c9.558-4.121,19.565-8.056,29.956-11.765
	c9.786-3.516,19.921-6.844,30.375-9.942c10.872-3.197,22.063-6.176,33.572-8.893c16.021-3.772,32.614-7,49.721-9.592
	c13.139-2.011,26.569-3.641,40.254-4.89c17.17,2.492,34.562,5.72,52.085,9.717C849.477,132.135,928.833,170.759,986.292,213.155z"/>
<path style="fill:#DFA292;" d="M867.478,213.155H624.926l-44.666-15.569l-80.062-27.883l-15.187-5.308
	c11.381-6.233,23.628-12.215,36.707-17.873c9.558-4.121,19.565-8.056,29.956-11.765c9.786-3.516,19.921-6.844,30.375-9.942
	c10.872-3.197,22.063-6.176,33.572-8.893c16.021-3.772,32.614-7,49.721-9.592c5.083,1.599,10.167,3.328,15.25,5.083
	C754.196,137.062,817.981,173.763,867.478,213.155z"/>
<path style="fill:#D09184;" d="M779.679,213.155H551.13l-87.637-35.939c6.042-3.928,12.468-7.769,19.184-11.54
	c0.765-0.419,1.564-0.862,2.332-1.28c11.381-6.233,23.628-12.215,36.707-17.873c9.558-4.121,19.565-8.056,29.956-11.765
	c9.786-3.516,19.921-6.844,30.375-9.942c10.872-3.197,22.063-6.176,33.572-8.893C679.346,142.077,734.947,176.517,779.679,213.155z"
	/>
<path style="fill:#DFA292;" d="M709.081,213.155H505.568l-52.404-29.001c3.326-2.33,6.779-4.665,10.329-6.938
	c6.042-3.928,12.468-7.769,19.184-11.54c0.765-0.419,1.564-0.862,2.332-1.28c11.381-6.233,23.628-12.215,36.707-17.873
	c9.558-4.121,19.565-8.056,29.956-11.765c9.786-3.516,19.921-6.844,30.375-9.942c2.817,1.499,5.63,3.004,8.443,4.571
	C635.254,154.166,675.093,182.943,709.081,213.155z"/>
<path style="fill:#D09184;" d="M652.328,213.155H463.3l-25.707-17.105c4.827-4.028,10.039-7.993,15.571-11.896
	c3.326-2.33,6.779-4.665,10.329-6.938c6.042-3.928,12.468-7.769,19.184-11.54c0.765-0.419,1.564-0.862,2.332-1.28
	c11.381-6.233,23.628-12.215,36.707-17.873c9.558-4.121,19.565-8.056,29.956-11.765c3.997,2.523,7.962,5.083,11.928,7.738
	c27.658,18.416,53.109,38.337,76.162,59.088C644.047,205.418,648.234,209.29,652.328,213.155z"/>
<path style="fill:#DFA292;" d="M595.575,213.155H422.406l-1.727-1.405c1.599-1.692,3.294-3.391,5.021-5.083
	c3.675-3.547,7.64-7.1,11.893-10.616c4.827-4.028,10.039-7.993,15.571-11.896c3.326-2.33,6.779-4.665,10.329-6.938
	c6.042-3.928,12.468-7.769,19.184-11.54c0.765-0.419,1.564-0.862,2.332-1.28c5.021-2.748,10.232-5.464,15.603-8.118
	c6.779-3.328,13.814-6.588,21.104-9.754c3.675,2.848,7.353,5.758,10.997,8.699c11.928,9.655,23.375,19.565,34.275,29.732
	c4.509,4.159,8.955,8.412,13.27,12.633C585.502,202.733,590.62,207.947,595.575,213.155z"/>
<path style="fill:#D09184;" d="M543.362,213.155h-87.128l-30.534-6.488c3.675-3.547,7.64-7.1,11.893-10.616
	c4.827-4.028,10.039-7.993,15.571-11.896c3.326-2.33,6.779-4.665,10.329-6.938c6.042-3.928,12.468-7.769,19.184-11.54
	c0.765-0.419,1.564-0.862,2.332-1.28c5.021-2.748,10.232-5.464,15.603-8.118c2.398,2.81,4.765,5.689,7.097,8.599
	c9.658,11.927,18.803,23.98,27.34,36.195C537.894,205.099,540.677,209.127,543.362,213.155z"/>
<rect x="-144.38" y="197.335" style="fill:#DFA292;" width="5901.746" height="17.205"/>
<polygon style="fill:#E6BCA4;" points="5843.132,284.309 -10.831,284.327 -9.931,213.112 5843.132,213.093 "/>
</svg>
